<svg width="160" height="43" viewBox="0 0 160 43" fill="none" xmlns="http://www.w3.org/2000/svg">
<path d="M87.7523 43C86.6697 43 85.6672 42.8337 84.745 42.501C83.8227 42.188 83.0408 41.689 82.3993 41.0042C81.7577 40.3194 81.3267 39.4486 81.1061 38.392H83.7526C83.913 38.979 84.2137 39.4486 84.6548 39.8008C85.0958 40.153 85.6071 40.3976 86.1885 40.5346C86.7699 40.6911 87.3413 40.7694 87.9027 40.7694C88.9853 40.7694 89.8575 40.5542 90.5191 40.1237C91.2007 39.7128 91.6919 39.1356 91.9927 38.392C92.2934 37.6681 92.4438 36.8365 92.4438 35.8973V33.7547C92.1029 34.3417 91.6518 34.8211 91.0905 35.1929C90.5291 35.5646 89.9176 35.8386 89.256 36.0147C88.5944 36.1712 87.9127 36.2495 87.211 36.2495C85.6071 36.2495 84.2939 35.9071 83.2714 35.2222C82.2489 34.5178 81.487 33.5786 80.9858 32.4046C80.5046 31.211 80.2641 29.8707 80.2641 28.3837C80.2641 26.8966 80.5147 25.5563 81.0159 24.3627C81.5171 23.1496 82.289 22.1908 83.3315 21.4864C84.3741 20.782 85.7073 20.4298 87.3313 20.4298C88.2535 20.4298 89.1858 20.5961 90.1281 20.9287C91.0704 21.2614 91.8423 21.7995 92.4438 22.543L92.5641 20.6059H95V35.956C95 37.4039 94.7293 38.6562 94.188 39.7128C93.6667 40.7694 92.8648 41.5814 91.7822 42.1488C90.7196 42.7163 89.3763 43 87.7523 43ZM87.5719 34.0482C88.6345 34.0482 89.5266 33.7841 90.2484 33.2558C90.9702 32.7275 91.5215 32.0231 91.9024 31.1426C92.2834 30.2621 92.4738 29.3033 92.4738 28.2663C92.4738 27.1901 92.2834 26.2313 91.9024 25.3899C91.5416 24.5486 91.0002 23.8833 90.2785 23.3941C89.5567 22.905 88.6445 22.6604 87.5418 22.6604C86.399 22.6604 85.4768 22.9148 84.7751 23.4235C84.0934 23.9322 83.5922 24.6171 83.2714 25.478C82.9707 26.3389 82.8203 27.2977 82.8203 28.3543C82.8203 29.45 82.9807 30.4284 83.3015 31.2893C83.6223 32.1503 84.1335 32.8253 84.8352 33.3145C85.5369 33.8036 86.4491 34.0482 87.5719 34.0482Z" fill="white"/>
<path d="M63.3977 36.0734V20.6059H65.8638L65.9841 22.9539C66.3449 22.3865 66.8061 21.9169 67.3674 21.5451C67.9288 21.1733 68.5403 20.8994 69.2019 20.7233C69.8836 20.5276 70.5452 20.4298 71.1867 20.4298C72.7305 20.4298 73.9334 20.7429 74.7955 21.369C75.6777 21.9951 76.2992 22.8463 76.6601 23.9224C77.041 24.979 77.2315 26.1824 77.2315 27.5325V36.0734H74.6752V28.2076C74.6752 27.4836 74.6251 26.789 74.5249 26.1237C74.4447 25.4584 74.2642 24.8616 73.9836 24.3333C73.7229 23.805 73.342 23.3941 72.8408 23.1006C72.3395 22.7876 71.6679 22.631 70.8259 22.631C69.7833 22.631 68.8911 22.9148 68.1493 23.4822C67.4276 24.0496 66.8762 24.8127 66.4953 25.7715C66.1344 26.7303 65.954 27.8064 65.954 29V36.0734H63.3977Z" fill="white"/>
<path d="M57.1205 36.0734V20.6059H59.6768V36.0734H57.1205ZM58.3836 18.3166C57.8623 18.3166 57.4413 18.16 57.1205 17.847C56.8198 17.5339 56.6694 17.1328 56.6694 16.6436C56.6694 16.1544 56.8298 15.7631 57.1506 15.4696C57.4714 15.1565 57.8824 15 58.3836 15C58.8447 15 59.2457 15.1565 59.5865 15.4696C59.9474 15.7827 60.1279 16.174 60.1279 16.6436C60.1279 17.1328 59.9574 17.5339 59.6166 17.847C59.2758 18.16 58.8648 18.3166 58.3836 18.3166Z" fill="white"/>
<path d="M45.6164 36.2495C44.0326 36.2495 42.7294 35.9071 41.7069 35.2222C40.6844 34.5178 39.9225 33.5786 39.4213 32.4046C38.9201 31.211 38.6695 29.8707 38.6695 28.3837C38.6695 26.8966 38.9201 25.5563 39.4213 24.3627C39.9225 23.1496 40.6944 22.1908 41.737 21.4864C42.7795 20.782 44.1128 20.4298 45.7367 20.4298C46.3582 20.4298 46.9797 20.508 47.6013 20.6646C48.2428 20.8015 48.8443 21.0266 49.4057 21.3396C49.967 21.6331 50.4482 22.0343 50.8492 22.543V15.3229H53.4054V36.0734H50.9695L50.8492 33.7547C50.4883 34.3417 50.0272 34.8211 49.4658 35.1929C48.9245 35.5451 48.323 35.8092 47.6614 35.9853C46.9998 36.1614 46.3181 36.2495 45.6164 36.2495ZM45.9773 34.0482C47.0399 34.0482 47.9321 33.7841 48.6538 33.2558C49.3756 32.7275 49.9269 32.0231 50.3079 31.1426C50.6888 30.2621 50.8793 29.3033 50.8793 28.2663C50.8793 27.1901 50.6888 26.2313 50.3079 25.3899C49.947 24.5486 49.4057 23.8833 48.6839 23.3941C47.9621 22.905 47.0499 22.6604 45.9472 22.6604C44.8044 22.6604 43.8822 22.9148 43.1805 23.4235C42.4988 23.9322 41.9976 24.6268 41.6768 25.5073C41.3761 26.3683 41.2257 27.3368 41.2257 28.413C41.2257 29.1957 41.3059 29.9294 41.4663 30.6143C41.6467 31.2795 41.9174 31.8763 42.2783 32.4046C42.6592 32.9134 43.1504 33.3145 43.7519 33.608C44.3533 33.9015 45.0951 34.0482 45.9773 34.0482Z" fill="white"/>
<path d="M27.9731 36.2495C27.2514 36.2495 26.5497 36.1614 25.868 35.9853C25.2064 35.7897 24.6049 35.5059 24.0636 35.1342C23.5423 34.7428 23.1213 34.2635 22.8005 33.696C22.4998 33.109 22.3494 32.434 22.3494 31.6709C22.3494 30.7904 22.5098 30.0468 22.8306 29.4403C23.1714 28.8337 23.6225 28.3543 24.1839 28.0021C24.7453 27.6499 25.3968 27.3955 26.1387 27.239C26.8805 27.0825 27.6523 27.0042 28.4543 27.0042H33.1157C33.1157 26.1237 32.9854 25.3606 32.7247 24.7149C32.4841 24.0692 32.0832 23.5702 31.5218 23.218C30.9604 22.8463 30.2186 22.6604 29.2964 22.6604C28.735 22.6604 28.2137 22.7191 27.7325 22.8365C27.2514 22.9539 26.8404 23.1398 26.4995 23.3941C26.1587 23.6485 25.9081 23.9909 25.7477 24.4214H23.011C23.1514 23.717 23.422 23.1202 23.823 22.631C24.244 22.1223 24.7453 21.7114 25.3267 21.3983C25.9281 21.0657 26.5697 20.8211 27.2514 20.6646C27.933 20.5081 28.6147 20.4298 29.2964 20.4298C31.5819 20.4298 33.2059 21.0853 34.1682 22.3962C35.1306 23.7072 35.6118 25.478 35.6118 27.7086V36.0734H33.4766L33.3262 34.1069C32.8851 34.6939 32.3538 35.144 31.7323 35.457C31.1108 35.7701 30.4692 35.9755 29.8076 36.0734C29.166 36.1908 28.5545 36.2495 27.9731 36.2495ZM28.2137 34.0482C29.2162 34.0482 30.0783 33.8917 30.8 33.5786C31.5418 33.246 32.1132 32.7666 32.5142 32.1405C32.9152 31.5143 33.1157 30.7512 33.1157 29.8512V29.0881H30.3188C29.6572 29.0881 29.0056 29.0978 28.3641 29.1174C27.7225 29.137 27.1411 29.2152 26.6198 29.3522C26.0986 29.4892 25.6775 29.724 25.3567 30.0566C25.056 30.3892 24.9057 30.8686 24.9057 31.4948C24.9057 32.0818 25.056 32.5612 25.3567 32.9329C25.6775 33.3047 26.0885 33.5884 26.5898 33.7841C27.111 33.9602 27.6523 34.0482 28.2137 34.0482Z" fill="white"/>
<path d="M11.9726 36.0734V20.6059H14.4386L14.5589 23.0126C14.9598 22.406 15.421 21.9169 15.9422 21.5451C16.4836 21.1733 17.075 20.8994 17.7166 20.7233C18.3782 20.5276 19.0899 20.4298 19.8518 20.4298C19.9921 20.4298 20.1224 20.4298 20.2427 20.4298C20.3831 20.4298 20.5234 20.4298 20.6637 20.4298V22.7778H19.7315C18.4884 22.7778 17.476 23.0419 16.6941 23.5702C15.9322 24.079 15.3809 24.7736 15.04 25.6541C14.6992 26.515 14.5288 27.4738 14.5288 28.5304V36.0734H11.9726Z" fill="white"/>
<path d="M7.57848 36.0734C6.37555 36.0734 5.40318 35.8973 4.66137 35.5451C3.93961 35.1929 3.40831 34.645 3.06748 33.9015C2.7467 33.1579 2.58631 32.2187 2.58631 31.0839V22.8071H0V20.6059H2.58631V15.9979H5.14254V20.6059H9.38288V22.8071H5.14254V30.8197C5.14254 31.8763 5.333 32.659 5.71393 33.1677C6.11491 33.6569 6.91687 33.9015 8.1198 33.9015H9.29266V36.0734H7.57848Z" fill="white"/>
<path d="M153.667 36C152.946 36 152.216 35.9307 151.475 35.7922C150.755 35.6537 150.075 35.4163 149.434 35.08C148.814 34.7436 148.294 34.2885 147.874 33.7148C147.453 33.141 147.183 32.4287 147.063 31.5779H149.645C149.845 32.1121 150.165 32.5474 150.605 32.8838C151.065 33.2003 151.576 33.4279 152.136 33.5664C152.716 33.7049 153.266 33.7741 153.787 33.7741C154.107 33.7741 154.477 33.7543 154.897 33.7148C155.318 33.6752 155.718 33.5862 156.098 33.4477C156.498 33.2894 156.818 33.0618 157.058 32.765C157.319 32.4683 157.449 32.0528 157.449 31.5185C157.449 31.1228 157.359 30.7964 157.179 30.5392C156.998 30.2819 156.748 30.0742 156.428 29.9159C156.108 29.7378 155.718 29.6092 155.257 29.5301C154.317 29.3322 153.306 29.1443 152.226 28.9662C151.165 28.7881 150.225 28.4518 149.404 27.9571C149.124 27.7791 148.864 27.5812 148.624 27.3636C148.404 27.1261 148.214 26.8689 148.054 26.5919C147.894 26.2951 147.764 25.9786 147.663 25.6422C147.583 25.2861 147.543 24.9002 147.543 24.4847C147.543 23.7131 147.693 23.0503 147.994 22.4963C148.314 21.9225 148.754 21.4575 149.314 21.1014C149.875 20.7255 150.515 20.4485 151.235 20.2704C151.976 20.0923 152.766 20.0033 153.607 20.0033C154.647 20.0033 155.578 20.1715 156.398 20.5078C157.239 20.8244 157.929 21.2993 158.469 21.9324C159.009 22.5458 159.33 23.3075 159.43 24.2176H157.058C156.918 23.6439 156.538 23.1789 155.918 22.8228C155.298 22.4468 154.507 22.2589 153.547 22.2589C153.226 22.2589 152.866 22.2885 152.466 22.3479C152.066 22.3875 151.686 22.4864 151.325 22.6447C150.965 22.7832 150.665 23.0008 150.425 23.2976C150.185 23.5746 150.065 23.9505 150.065 24.4254C150.065 24.8607 150.175 25.2267 150.395 25.5235C150.635 25.8203 150.965 26.0577 151.385 26.2358C151.806 26.4138 152.286 26.5622 152.826 26.681C153.527 26.8195 154.297 26.9678 155.137 27.1261C155.978 27.2646 156.638 27.413 157.118 27.5713C157.759 27.7692 158.289 28.0462 158.709 28.4023C159.15 28.7584 159.47 29.1838 159.67 29.6785C159.89 30.1731 160 30.7469 160 31.3998C160 32.3298 159.81 33.0915 159.43 33.6851C159.07 34.2786 158.579 34.7436 157.959 35.08C157.339 35.4163 156.648 35.6537 155.888 35.7922C155.147 35.9307 154.407 36 153.667 36Z" fill="#377DE6"/>
<path d="M141.637 20.9827V0H144.189V20.9827H141.637Z" fill="#377DE6"/>
<path d="M135.372 30.8755V9.89283H137.924V30.8755H135.372Z" fill="#377DE6"/>
<path d="M129.106 35.8219V20.1814H131.658V35.8219H129.106ZM130.367 17.8664C129.847 17.8664 129.426 17.7081 129.106 17.3916C128.806 17.075 128.656 16.6694 128.656 16.1748C128.656 15.6801 128.816 15.2844 129.136 14.9876C129.456 14.671 129.867 14.5128 130.367 14.5128C130.827 14.5128 131.227 14.671 131.567 14.9876C131.928 15.3042 132.108 15.6999 132.108 16.1748C132.108 16.6694 131.938 17.075 131.597 17.3916C131.257 17.7081 130.847 17.8664 130.367 17.8664Z" fill="#377DE6"/>
<path d="M113.812 35.8219V14.8392H116.363V26.9184H119.125L123.867 20.1814H126.749L121.466 27.6307L127.199 35.8219H124.198L119.425 29.1146H116.363V35.8219H113.812Z" fill="#377DE6"/>
<path d="M104.604 36C103.883 36 103.153 35.9307 102.412 35.7922C101.692 35.6537 101.012 35.4163 100.371 35.08C99.7509 34.7436 99.2307 34.2885 98.8104 33.7148C98.3902 33.141 98.1201 32.4287 98 31.5779H100.581C100.781 32.1121 101.102 32.5474 101.542 32.8838C102.002 33.2003 102.512 33.4279 103.073 33.5664C103.653 33.7049 104.203 33.7741 104.724 33.7741C105.044 33.7741 105.414 33.7543 105.834 33.7148C106.254 33.6752 106.655 33.5862 107.035 33.4477C107.435 33.2894 107.755 33.0618 107.995 32.765C108.255 32.4683 108.386 32.0528 108.386 31.5185C108.386 31.1228 108.295 30.7964 108.115 30.5392C107.935 30.2819 107.685 30.0742 107.365 29.9159C107.045 29.7378 106.655 29.6092 106.194 29.5301C105.254 29.3322 104.243 29.1443 103.163 28.9662C102.102 28.7881 101.162 28.4518 100.341 27.9571C100.061 27.7791 99.801 27.5812 99.5608 27.3636C99.3407 27.1261 99.1506 26.8689 98.9905 26.5919C98.8304 26.2951 98.7004 25.9786 98.6003 25.6422C98.5203 25.2861 98.4803 24.9002 98.4803 24.4847C98.4803 23.7131 98.6303 23.0503 98.9305 22.4963C99.2507 21.9225 99.6909 21.4575 100.251 21.1014C100.811 20.7255 101.452 20.4485 102.172 20.2704C102.913 20.0923 103.703 20.0033 104.543 20.0033C105.584 20.0033 106.515 20.1715 107.335 20.5078C108.175 20.8244 108.866 21.2993 109.406 21.9324C109.946 22.5458 110.267 23.3075 110.367 24.2176H107.995C107.855 23.6439 107.475 23.1789 106.855 22.8228C106.234 22.4468 105.444 22.2589 104.483 22.2589C104.163 22.2589 103.803 22.2885 103.403 22.3479C103.003 22.3875 102.622 22.4864 102.262 22.6447C101.902 22.7832 101.602 23.0008 101.362 23.2976C101.122 23.5746 101.002 23.9505 101.002 24.4254C101.002 24.8607 101.112 25.2267 101.332 25.5235C101.572 25.8203 101.902 26.0577 102.322 26.2358C102.743 26.4138 103.223 26.5622 103.763 26.681C104.463 26.8195 105.234 26.9678 106.074 27.1261C106.915 27.2646 107.575 27.413 108.055 27.5713C108.696 27.7692 109.226 28.0462 109.646 28.4023C110.086 28.7584 110.407 29.1838 110.607 29.6785C110.827 30.1731 110.937 30.7469 110.937 31.3998C110.937 32.3298 110.747 33.0915 110.367 33.6851C110.006 34.2786 109.516 34.7436 108.896 35.08C108.275 35.4163 107.585 35.6537 106.825 35.7922C106.084 35.9307 105.344 36 104.604 36Z" fill="#377DE6"/>
</svg>
